<svg width="1000" height="1000" xmlns="http://www.w3.org/2000/svg">

 <g>
  <title>background</title>
  <rect fill="none" id="canvas_background" height="402" width="582" y="-1" x="-1"/>
 </g>
 <g>
  <title>Layer 1</title>
  <text font-size="12px" font-family="'MyriadPro-Regular'" id="svg_1" transform="matrix(1 0 0 1 5 995)" class="st0 st1"/>
  <path fill="#ffffff" id="svg_7" d="m445,655l-275,0c-11,0 -20,-9 -20,-20l0,-275c0,-11 9,-20 20,-20l275,0c11,0 20,9 20,20l0,275c0,11 -9,20 -20,20z" class="st4"/>
  <path fill="#ffffff" id="horn" d="m445,195.100006l-287.699997,287.699982c-9.400009,9.399994 -9.400009,24.600006 0,34l287.699997,287.600037c15.100006,15.099976 41,4.400024 41,-17l0,-575.300018c0,-21.400009 -25.899994,-32.100006 -41,-17z" class="st4"/>
  <path fill="#ffffff" id="svg_16" d="m563.799988,415.700012c22.799988,22.799988 45.599976,45.600006 68.400024,68.399994c36.399963,36.399994 72.799988,72.800018 109.099976,109.100006c8.400024,8.400024 16.799988,16.799988 25.200012,25.200012c9.299988,9.299988 26.200012,9.899963 35.399963,0c9.200012,-10 9.900024,-25.5 0,-35.400024c-22.799988,-22.799988 -45.599976,-45.599976 -68.399963,-68.399963c-36.400024,-36.400024 -72.799988,-72.800018 -109.100037,-109.100037c-8.399963,-8.399994 -16.799988,-16.799988 -25.199951,-25.199982c-9.300049,-9.300018 -26.200012,-9.899994 -35.400024,0c-9.099976,9.999969 -9.899963,25.499969 0,35.399994l0,0z" class="st4"/>
  <path fill="#ffffff" id="svg_19" d="m767.299988,381.100006c-22.799988,22.800018 -45.599976,45.600006 -68.400024,68.399994c-36.399963,36.400024 -72.799988,72.799988 -109.099976,109.100037c-8.400024,8.399963 -16.799988,16.799988 -25.200012,25.199951c-9.299988,9.300049 -9.899963,26.200012 0,35.400024c10,9.200012 25.5,9.900024 35.400024,0c22.799988,-22.799988 45.599976,-45.599976 68.399963,-68.400024c36.400024,-36.399963 72.800049,-72.799988 109.100037,-109.099976c8.399963,-8.399994 16.799988,-16.799988 25.200012,-25.200012c9.299988,-9.299988 9.899963,-26.199982 0,-35.399994c-10,-9.200012 -25.5,-9.899994 -35.400024,0l0,0z" class="st4"/>
 </g>
</svg>