<svg width="1000" height="1000" xmlns="http://www.w3.org/2000/svg">

 <g>
  <title>background</title>
  <rect fill="none" id="canvas_background" height="402" width="582" y="-1" x="-1"/>
 </g>
 <g>
  <title>Layer 1</title>
  <text font-size="12px" font-family="'MyriadPro-Regular'" id="svg_1" transform="matrix(1 0 0 1 5 995)" class="st0 st1"/>
  <path fill="#ffffff" id="svg_7" d="m445,655l-275,0c-11,0 -20,-9 -20,-20l0,-275c0,-11 9,-20 20,-20l275,0c11,0 20,9 20,20l0,275c0,11 -9,20 -20,20z" class="st4"/>
  <path fill="#ffffff" id="horn" d="m445,195.100006l-287.699997,287.699982c-9.400009,9.399994 -9.400009,24.600006 0,34l287.699997,287.600037c15.100006,15.099976 41,4.400024 41,-17l0,-575.300018c0,-21.400009 -25.899994,-32.100006 -41,-17z" class="st4"/>
  <path fill="#ffffff" id="svg_9" d="m540.200012,648.700012c30.099976,-30.400024 51.599976,-70.099976 58.5,-112.5c7.099976,-43.600006 1.400024,-86.899994 -17,-127c-10.099976,-21.899994 -24.599976,-41.899994 -41.5,-58.899994c-9.200012,-9.300018 -26.200012,-9.899994 -35.399994,0c-9.200012,10 -9.800018,25.399994 0,35.399994c3.5,3.5 6.799988,7.100006 9.999969,10.799988c1.400024,1.700012 2.800049,3.400024 4.200012,5c2.200012,2.600006 -3.799988,-5.199982 -0.799988,-1.099976c0.900024,1.199982 1.700012,2.299988 2.599976,3.5c5.400024,7.5 10.200012,15.399994 14.400024,23.599976c1,1.900024 1.900024,3.800018 2.799988,5.700012c0.799988,1.799988 3.799988,9.399994 0.900024,1.700012c1.700012,4.299988 3.399963,8.599976 4.799988,13c2.900024,8.699982 5.099976,17.699982 6.700012,26.799988c0.200012,1.200012 1.299988,8.299988 0.599976,3.5c-0.700012,-4.700012 0.200012,2.200012 0.299988,3.5c0.5,4.799988 0.700012,9.600006 0.800049,14.399994c0.199951,9 -0.800049,17.800018 -1.400024,26.699982c0.599976,-8.699951 0,-0.5 -0.299988,1.5c-0.400024,2.300049 -0.799988,4.5 -1.299988,6.800049c-0.900024,4.5 -2.100037,9 -3.300049,13.399963c-1.199951,4 -2.399963,8 -3.899963,11.900024c-0.799988,2.200012 -1.600037,4.299988 -2.5,6.5c-1.5,3.799988 0.799988,-1.799988 0.899963,-2.100037c-0.799988,1.400024 -1.299988,3 -2,4.5c-4.399963,9.400024 -9.5,18.400024 -15.399963,27c-1.5,2.200012 -3,4.300049 -4.600037,6.400024c-2.399963,3.299988 1,-1.400024 1.300049,-1.599976c-1.200012,1.099976 -2.200012,2.699951 -3.200012,3.899963c-3.600037,4.299988 -7.400024,8.5 -11.400024,12.5c-9.199982,9.299988 -10,26.200012 0,35.400024c9.799988,8.899963 25.299988,9.699951 35.200012,-0.200012l0,0z" class="st4"/>
  <path fill="#ffffff" id="svg_11" d="m608.200012,724.700012c45.599976,-45.900024 77.599976,-105.700012 88.299988,-169.599976c10.900024,-65.000031 2.300049,-130.800049 -25.399963,-190.700012c-15.299988,-33.200012 -37.100037,-63.600006 -62.900024,-89.5c-9.200012,-9.300018 -26.200012,-9.900024 -35.400024,0c-9.199951,10 -9.899963,25.399994 0,35.399994c5.5,5.600006 10.900024,11.299988 16,17.299988c2.200012,2.600006 4.400024,5.200012 6.5,7.899994c0.600037,0.700012 1.200012,1.600006 1.800049,2.300018c-4.300049,-4.800018 -2.200012,-2.899994 -1.300049,-1.600006c1.300049,1.700012 2.600037,3.5 3.900024,5.200012c8.700012,12.099976 16.599976,24.899994 23.299988,38.199982c1.5,2.899994 2.900024,5.899994 4.299988,8.800018c0.800049,1.699982 1.600037,3.399994 2.300049,5.099976c0.399963,0.900024 0.699951,1.700012 1.099976,2.600006c1.700012,4 -1.799988,-4.299988 -0.599976,-1.5c2.699951,6.700012 5.199951,13.399994 7.5,20.300018c4.5,13.599976 7.899963,27.5 10.399963,41.599976c0.299988,1.800018 0.600037,3.600006 0.900024,5.400024c0.299988,2 1,8.399994 0.099976,0.199982c0.400024,3.700012 0.900024,7.300018 1.200012,11c0.599976,7.100006 1,14.200012 1.200012,21.300018c0.299988,14.5 -0.900024,28.799988 -2.400024,43.299988c0,-0.200012 0.900024,-6.700012 0.299988,-2.5c-0.099976,0.700012 -0.199951,1.400024 -0.299988,2c-0.299988,1.799988 -0.599976,3.599976 -0.899963,5.400024c-0.600037,3.599976 -1.300049,7.199951 -2.100037,10.899963c-1.5,7 -3.200012,13.900024 -5.200012,20.799988c-2,7.100037 -4.399963,14.200012 -6.899963,21.100037c-1.100037,3.099976 -2.299988,6.099976 -3.600037,9.099976c-1.5,3.799988 0.800049,-1.799988 0.900024,-2.099976c-0.400024,0.799988 -0.700012,1.700012 -1.099976,2.599976c-0.800049,1.900024 -1.700012,3.799988 -2.600037,5.799988c-7,15 -15.200012,29.400024 -24.599976,43c-2.299988,3.400024 -4.700012,6.600037 -7.200012,9.900024c-2.400024,3.299988 1,-1.299988 1.299988,-1.599976c-0.799988,0.899963 -1.5,1.899963 -2.200012,2.799988c-1.399963,1.700012 -2.699951,3.399963 -4.099976,5.099976c-5.700012,6.799988 -11.599976,13.299988 -17.900024,19.5c-9.199951,9.299988 -10,26.200012 0,35.400024c10,8.899963 25.5,9.699951 35.400024,-0.200012l0,0z" class="st4"/>
 </g>
</svg>